<svg id="Layer_1" data-name="Layer 1" xmlns="http://www.w3.org/2000/svg" viewBox="0 0 408.57 62.92"><defs><style>.cls-1{fill:#007746;}</style></defs><title>logo</title><path class="cls-1" d="M1.16,39a13.85,13.85,0,0,1,.91-5,12.45,12.45,0,0,1,2.57-4.1,12.06,12.06,0,0,1,4-2.76,12.44,12.44,0,0,1,5.09-1,11.58,11.58,0,0,1,6.19,1.61,10.37,10.37,0,0,1,4,4.34l-3.17,1a7.67,7.67,0,0,0-2.95-3A8.37,8.37,0,0,0,13.55,29a8.28,8.28,0,0,0-3.58.77,9.16,9.16,0,0,0-2.88,2.08A9.45,9.45,0,0,0,5.17,35a11.17,11.17,0,0,0-.7,4,11,11,0,0,0,.72,4,10.38,10.38,0,0,0,2,3.24,9.36,9.36,0,0,0,2.91,2.16,8.16,8.16,0,0,0,3.52.79A8.4,8.4,0,0,0,16,48.81a9,9,0,0,0,2.18-.93,7.75,7.75,0,0,0,1.73-1.37,4.45,4.45,0,0,0,1-1.63l3.22,1a8.44,8.44,0,0,1-1.54,2.47,10.46,10.46,0,0,1-2.38,2,11.51,11.51,0,0,1-3,1.29,12.62,12.62,0,0,1-3.43.46,12.13,12.13,0,0,1-9-3.87A13,13,0,0,1,2.1,44,13.4,13.4,0,0,1,1.16,39Z" transform="translate(-1.16 -1.32)"/><path class="cls-1" d="M41.58,52a11.94,11.94,0,0,1-5-1,12.4,12.4,0,0,1-3.92-2.81,12.7,12.7,0,0,1-2.56-4.13,13.75,13.75,0,0,1,0-9.94A13.08,13.08,0,0,1,32.72,30a12.72,12.72,0,0,1,3.91-2.84,11.62,11.62,0,0,1,4.95-1.05,11.75,11.75,0,0,1,5,1.05A12.46,12.46,0,0,1,50.48,30a12.91,12.91,0,0,1,2.59,4.12,13.31,13.31,0,0,1,.94,5,13.53,13.53,0,0,1-.91,4.94,12.9,12.9,0,0,1-2.57,4.13A12.26,12.26,0,0,1,46.59,51,12.13,12.13,0,0,1,41.58,52ZM32.51,39.16a10.49,10.49,0,0,0,2.66,7.08,8.74,8.74,0,0,0,2.88,2.14,8.3,8.3,0,0,0,3.53.77,8.21,8.21,0,0,0,3.53-.79A9.44,9.44,0,0,0,48,46.2,10.42,10.42,0,0,0,50,43a11,11,0,0,0,0-7.84,10.17,10.17,0,0,0-2-3.22,9.44,9.44,0,0,0-2.9-2.16A8.06,8.06,0,0,0,41.58,29a7.92,7.92,0,0,0-3.51.79A9.63,9.63,0,0,0,35.19,32a10.59,10.59,0,0,0-2,3.24A10.87,10.87,0,0,0,32.51,39.16Z" transform="translate(-1.16 -1.32)"/><path class="cls-1" d="M73.88,29.42a10.24,10.24,0,0,0-5.76,1.82A9.22,9.22,0,0,0,64.67,36V51.55H61.4v-25h3.07v6A11.39,11.39,0,0,1,68.22,28a8.67,8.67,0,0,1,5-1.63,3.57,3.57,0,0,1,.62,0Z" transform="translate(-1.16 -1.32)"/><path class="cls-1" d="M89.58,52a11.94,11.94,0,0,1-5-1,12.4,12.4,0,0,1-3.92-2.81,12.7,12.7,0,0,1-2.56-4.13,13.75,13.75,0,0,1,0-9.94A13.08,13.08,0,0,1,80.72,30a12.72,12.72,0,0,1,3.91-2.84,11.62,11.62,0,0,1,5-1.05,11.75,11.75,0,0,1,5,1.05A12.46,12.46,0,0,1,98.48,30a12.91,12.91,0,0,1,2.59,4.12,13.31,13.31,0,0,1,.94,5,13.53,13.53,0,0,1-.91,4.94,12.9,12.9,0,0,1-2.57,4.13A12.26,12.26,0,0,1,94.59,51,12.13,12.13,0,0,1,89.58,52ZM80.51,39.16a10.49,10.49,0,0,0,2.66,7.08,8.74,8.74,0,0,0,2.88,2.14,8.3,8.3,0,0,0,3.53.77,8.21,8.21,0,0,0,3.53-.79A9.44,9.44,0,0,0,96,46.2,10.42,10.42,0,0,0,98,43a11,11,0,0,0,0-7.84,10.17,10.17,0,0,0-2-3.22,9.44,9.44,0,0,0-2.9-2.16A8.06,8.06,0,0,0,89.58,29a7.92,7.92,0,0,0-3.51.79A9.63,9.63,0,0,0,83.19,32a10.59,10.59,0,0,0-2,3.24A10.87,10.87,0,0,0,80.51,39.16Z" transform="translate(-1.16 -1.32)"/><path class="cls-1" d="M130.43,51.55h-3.27v-14q0-4.47-1.32-6.48a4.52,4.52,0,0,0-4-2,8.37,8.37,0,0,0-2.88.53,9.75,9.75,0,0,0-2.67,1.49,11.54,11.54,0,0,0-2.18,2.28,8.73,8.73,0,0,0-1.39,2.86V51.55H109.4v-25h3V32.2a11.76,11.76,0,0,1,4.39-4.41A12,12,0,0,1,123,26.11a7.27,7.27,0,0,1,3.5.77,5.9,5.9,0,0,1,2.3,2.16,9.67,9.67,0,0,1,1.25,3.4,23.69,23.69,0,0,1,.39,4.47Z" transform="translate(-1.16 -1.32)"/><path class="cls-1" d="M222.1,50.35l-.84.38c-.36.16-.79.32-1.27.48a13.17,13.17,0,0,1-1.63.43,9.19,9.19,0,0,1-1.92.2,7.1,7.1,0,0,1-2-.29,4.67,4.67,0,0,1-1.68-.89,4.36,4.36,0,0,1-1.15-1.51,4.85,4.85,0,0,1-.43-2.11V29.13H207.7V26.54h3.46V18.09h3.26v8.45h5.76v2.59h-5.76v17a2.58,2.58,0,0,0,1,2,3.31,3.31,0,0,0,2,.65,6.23,6.23,0,0,0,2.45-.45,11.31,11.31,0,0,0,1.34-.65Z" transform="translate(-1.16 -1.32)"/><path class="cls-1" d="M291,52a8.83,8.83,0,0,1-3.29-.6,8.16,8.16,0,0,1-2.64-1.66,7.49,7.49,0,0,1-2.38-5.52,6.19,6.19,0,0,1,.77-3,7.24,7.24,0,0,1,2.16-2.4A10.68,10.68,0,0,1,289,37.27a15.2,15.2,0,0,1,4.23-.55,23.58,23.58,0,0,1,3.89.33,17.55,17.55,0,0,1,3.5,1V35.76a7.26,7.26,0,0,0-1.87-5.26,6.86,6.86,0,0,0-5.19-1.94,11,11,0,0,0-3.93.76,19.06,19.06,0,0,0-4.08,2.21l-1.15-2.16a16.9,16.9,0,0,1,9.4-3.26,10.12,10.12,0,0,1,7.4,2.64A9.75,9.75,0,0,1,303.84,36V47.32q0,1.35,1.2,1.35v2.88a8.4,8.4,0,0,1-1.24.14,2.85,2.85,0,0,1-1.95-.62,2.36,2.36,0,0,1-.74-1.73l-.1-2a11.3,11.3,0,0,1-4.34,3.46A13.4,13.4,0,0,1,291,52Zm.77-2.5a11.32,11.32,0,0,0,4.68-1A7.73,7.73,0,0,0,299.72,46a3,3,0,0,0,.64-.94,2.28,2.28,0,0,0,.22-.93V40.08a19.5,19.5,0,0,0-3.38-1,18.49,18.49,0,0,0-3.58-.34A10,10,0,0,0,288,40.22,4.37,4.37,0,0,0,285.84,44a5.23,5.23,0,0,0,.46,2.16,5.34,5.34,0,0,0,1.25,1.75,5.88,5.88,0,0,0,1.89,1.18A6.38,6.38,0,0,0,291.8,49.53Z" transform="translate(-1.16 -1.32)"/><path class="cls-1" d="M311.09,39a13.85,13.85,0,0,1,.91-5,12.45,12.45,0,0,1,2.57-4.1,12.06,12.06,0,0,1,4-2.76,12.44,12.44,0,0,1,5.09-1,11.58,11.58,0,0,1,6.19,1.61,10.37,10.37,0,0,1,4,4.34l-3.17,1a7.67,7.67,0,0,0-2.95-3,8.37,8.37,0,0,0-4.2-1.08,8.28,8.28,0,0,0-3.58.77A9.16,9.16,0,0,0,317,31.84,9.45,9.45,0,0,0,315.1,35a11.17,11.17,0,0,0-.7,4,11,11,0,0,0,.72,4,10.38,10.38,0,0,0,2,3.24A9.36,9.36,0,0,0,320,48.36a8.16,8.16,0,0,0,3.52.79,8.4,8.4,0,0,0,2.38-.34,9,9,0,0,0,2.18-.93,7.75,7.75,0,0,0,1.73-1.37,4.45,4.45,0,0,0,1-1.63l3.22,1a8.44,8.44,0,0,1-1.54,2.47,10.46,10.46,0,0,1-2.38,2,11.51,11.51,0,0,1-3,1.29,12.62,12.62,0,0,1-3.43.46,12.13,12.13,0,0,1-9-3.87A13,13,0,0,1,312,44,13.4,13.4,0,0,1,311.09,39Z" transform="translate(-1.16 -1.32)"/><path class="cls-1" d="M359,51.55l-9.22-12.82-5.37,5v7.83h-3.27v-35h3.27V40.32l14.06-13.73h3.7L351.89,36.81,362.5,51.55Z" transform="translate(-1.16 -1.32)"/><path class="cls-1" d="M378,52a12.15,12.15,0,0,1-5-1,12.35,12.35,0,0,1-4-2.84A13.24,13.24,0,0,1,366.36,44a13.6,13.6,0,0,1-.93-5,13.31,13.31,0,0,1,.93-5,12.92,12.92,0,0,1,2.6-4.08,12.36,12.36,0,0,1,4-2.78A12.19,12.19,0,0,1,386.84,30a13.19,13.19,0,0,1,3.45,9v.77a1.65,1.65,0,0,1-.05.53h-21.4a10.4,10.4,0,0,0,.93,3.72,10.21,10.21,0,0,0,2,3,9.31,9.31,0,0,0,2.86,2,8.58,8.58,0,0,0,3.43.69,9,9,0,0,0,2.4-.33,9.7,9.7,0,0,0,2.21-.92,8,8,0,0,0,1.82-1.41A6,6,0,0,0,385.78,45l2.83.77A8.26,8.26,0,0,1,387,48.31a11.33,11.33,0,0,1-2.45,2,11.85,11.85,0,0,1-3.07,1.29A13.08,13.08,0,0,1,378,52Zm9.21-14.31a10.18,10.18,0,0,0-.93-3.67,10,10,0,0,0-2-2.85A8.82,8.82,0,0,0,378,28.65a9.15,9.15,0,0,0-3.46.67,8.94,8.94,0,0,0-2.86,1.88,9.18,9.18,0,0,0-2,2.88,10.64,10.64,0,0,0-.89,3.64Z" transform="translate(-1.16 -1.32)"/><path class="cls-1" d="M409.73,29.42A10.24,10.24,0,0,0,404,31.24,9.22,9.22,0,0,0,400.52,36V51.55h-3.27v-25h3.07v6A11.39,11.39,0,0,1,404.07,28a8.67,8.67,0,0,1,5-1.63,3.57,3.57,0,0,1,.62,0Z" transform="translate(-1.16 -1.32)"/><path d="M158.67,1.32h5.23L190,64.24h-6.55l-8.16-19.68H147.06L139,64.24h-6.65Zm15.25,38.37L161.24,8.59l-12.85,31.1Z" transform="translate(-1.16 -1.32)"/><path d="M232.18,64.24V1.32h26.58a16.35,16.35,0,0,1,7.49,1.73,19.75,19.75,0,0,1,5.9,4.52A20.87,20.87,0,0,1,276,13.9a19.67,19.67,0,0,1,1.37,7.18,21.24,21.24,0,0,1-1,6.6,20.35,20.35,0,0,1-2.83,5.67,17.09,17.09,0,0,1-4.39,4.26A15.61,15.61,0,0,1,263.37,40l15.42,24.28h-7L257,41H238.38V64.24Zm6.2-28.71h20.56a10.53,10.53,0,0,0,5-1.2,12,12,0,0,0,3.85-3.24,15.45,15.45,0,0,0,2.48-4.6,16.55,16.55,0,0,0,.89-5.41,15.28,15.28,0,0,0-3.77-10A13,13,0,0,0,263.33,8a11,11,0,0,0-4.92-1.16h-20Z" transform="translate(-1.16 -1.32)"/></svg>